<?xml version="1.0" encoding="iso-8859-1"?>
<!-- Generator: Adobe Illustrator 19.0.0, SVG Export Plug-In . SVG Version: 6.00 Build 0)  -->
<svg version="1.1" id="Capa_1" xmlns="http://www.w3.org/2000/svg" xmlns:xlink="http://www.w3.org/1999/xlink" x="0px" y="0px"
	 viewBox="0 0 512 512" style="enable-background:new 0 0 512 512;" xml:space="preserve">
<g>
	<path style="fill:#455A64;" d="M16,272h64c8.837,0,16,7.163,16,16v192c0,8.837-7.163,16-16,16H16c-8.837,0-16-7.163-16-16V288
		C0,279.163,7.163,272,16,272z"/>
	<path style="fill:#455A64;" d="M208,208h64c8.837,0,16,7.163,16,16v64c0,8.837-7.163,16-16,16h-64c-8.837,0-16-7.163-16-16v-64
		C192,215.163,199.163,208,208,208z"/>
</g>
<path style="fill:#607D8B;" d="M432,80h64c8.837,0,16,7.163,16,16v96c0,8.837-7.163,16-16,16h-64c-8.837,0-16-7.163-16-16V96
	C416,87.163,423.163,80,432,80z"/>
<path style="fill:#FFC107;" d="M48,48h384c8.837,0,16,7.163,16,16v160c0,8.837-7.163,16-16,16H48c-8.837,0-16-7.163-16-16V64
	C32,55.163,39.163,48,48,48z"/>
<path style="fill:#FFA000;" d="M476.96,22.656c-3.001-4.171-7.822-6.647-12.96-6.656H48c-8.837,0-16,7.163-16,16v96
	c0,8.837,7.163,16,16,16h282.816c67.338,0.049,127.133-43.047,148.384-106.944C480.81,32.175,479.976,26.818,476.96,22.656z"/>
<path d="M330.816,144H48c-8.837,0-16-7.163-16-16V32c0-8.837,7.163-16,16-16h416c8.837-0.011,16.009,7.144,16.02,15.98
	c0.002,1.725-0.275,3.439-0.82,5.076C457.949,100.953,398.154,144.049,330.816,144z M64,112h266.816
	c45.216,0.075,86.897-24.443,108.8-64H64V112z"/>
<path d="M432,240H48c-8.837,0-16-7.163-16-16v-96c0-8.837,7.163-16,16-16s16,7.163,16,16v80h352V84.8c0-8.837,7.163-16,16-16
	s16,7.163,16,16V224C448,232.837,440.837,240,432,240z"/>
<path d="M496,208h-64c-8.837,0-16-7.163-16-16V96c0-8.837,7.163-16,16-16h64c8.837,0,16,7.163,16,16v96
	C512,200.837,504.837,208,496,208z M448,176h32v-64h-32V176z"/>
<path d="M80,496H16c-8.837,0-16-7.163-16-16V288c0-8.837,7.163-16,16-16h64c8.837,0,16,7.163,16,16v192
	C96,488.837,88.837,496,80,496z M32,464h32V304H32V464z"/>
<path d="M272,304h-64c-8.837,0-16-7.163-16-16v-64c0-8.837,7.163-16,16-16h64c8.837,0,16,7.163,16,16v64
	C288,296.837,280.837,304,272,304z M224,272h32v-32h-32V272z"/>
<path d="M176,400H80c-8.837,0-16-7.163-16-16s7.163-16,16-16h96c26.51,0,48-21.49,48-48v-32c0-8.837,7.163-16,16-16s16,7.163,16,16
	v32C256,364.183,220.183,400,176,400z"/>
<g>
</g>
<g>
</g>
<g>
</g>
<g>
</g>
<g>
</g>
<g>
</g>
<g>
</g>
<g>
</g>
<g>
</g>
<g>
</g>
<g>
</g>
<g>
</g>
<g>
</g>
<g>
</g>
<g>
</g>
</svg>
