<?xml version="1.0" encoding="iso-8859-1"?>
<!-- Generator: Adobe Illustrator 19.0.0, SVG Export Plug-In . SVG Version: 6.00 Build 0)  -->
<svg version="1.1" id="Capa_1" xmlns="http://www.w3.org/2000/svg" xmlns:xlink="http://www.w3.org/1999/xlink" x="0px" y="0px"
	 viewBox="0 0 512 512" style="enable-background:new 0 0 512 512;" xml:space="preserve">
<rect x="53.864" y="53.864" style="fill:#2E7191;" width="404.27" height="404.27"/>
<rect x="95.39" y="95.39" style="fill:#E7F2FA;" width="321.21" height="321.21"/>
<rect x="136.93" y="136.93" style="fill:#6A9AFF;" width="238.15" height="238.15"/>
<path d="M203.392,235.546c-5.385,0-8.502,3.023-8.502,9.446v25.034c0,6.424,3.117,9.447,8.596,9.447c7.558,0,8.03-5.763,8.313-9.447
	c0.283-3.495,3.495-4.439,7.274-4.439c5.101,0,7.463,1.322,7.463,6.99c0,12.565-10.203,19.743-23.711,19.743
	c-12.375,0-22.672-6.046-22.672-22.294v-25.034c0-16.248,10.297-22.294,22.672-22.294c13.509,0,23.711,6.802,23.711,18.799
	c0,5.668-2.362,6.991-7.369,6.991c-3.968,0-7.179-1.039-7.368-4.44C211.705,241.592,211.422,235.546,203.392,235.546z"/>
<path d="M233.995,227.139c0-2.362,2.173-4.441,5.479-4.441h19.555c12.469,0,22.294,5.857,22.294,21.728v0.473
	c0,15.87-10.202,21.916-23.239,21.916h-9.353v20.405c0,3.022-3.684,4.534-7.368,4.534c-3.684,0-7.369-1.512-7.369-4.534v-60.081
	H233.995z M248.731,235.546v19.933h9.353c5.29,0,8.502-3.023,8.502-9.446v-1.04c0-6.423-3.212-9.446-8.502-9.446h-9.353V235.546z"/>
<path d="M320.332,227.139c0-3.118,3.59-4.441,7.369-4.441c3.589,0,7.368,1.322,7.368,4.441v42.888
	c0,16.248-10.486,22.294-23.806,22.294c-13.415,0-23.806-6.046-23.806-22.294v-42.888c0-3.118,3.59-4.441,7.368-4.441
	c3.59,0,7.369,1.322,7.369,4.441v42.888c0,6.424,3.401,9.447,9.069,9.447s9.069-3.023,9.069-9.447V227.139z"/>
<path d="M335.34,178.8c-0.65,0-1.31-0.07-1.95-0.2c-0.64-0.13-1.27-0.32-1.87-0.57c-0.61-0.25-1.19-0.56-1.73-0.92
	c-0.55-0.359-1.06-0.779-1.52-1.239c-1.86-1.86-2.93-4.44-2.93-7.07c0-0.65,0.07-1.31,0.2-1.96c0.13-0.63,0.32-1.26,0.57-1.87
	c0.25-0.6,0.56-1.18,0.92-1.72c0.36-0.55,0.78-1.061,1.24-1.52c0.46-0.46,0.97-0.88,1.52-1.25c0.54-0.359,1.12-0.67,1.73-0.92
	c0.6-0.25,1.23-0.439,1.87-0.569c1.29-0.261,2.62-0.261,3.91,0c0.63,0.13,1.26,0.319,1.87,0.569c0.6,0.25,1.18,0.561,1.72,0.92
	c0.55,0.37,1.06,0.79,1.52,1.25s0.88,0.971,1.25,1.52c0.36,0.54,0.67,1.12,0.92,1.72c0.25,0.61,0.44,1.24,0.57,1.87
	c0.13,0.65,0.19,1.31,0.19,1.96c0,2.63-1.07,5.21-2.93,7.07c-0.46,0.46-0.97,0.88-1.52,1.239c-0.54,0.36-1.12,0.67-1.72,0.92
	c-0.61,0.25-1.24,0.44-1.87,0.57C336.65,178.73,335.99,178.8,335.34,178.8z"/>
<path d="M176.66,337c-0.65,0-1.31-0.07-1.96-0.2c-0.63-0.13-1.26-0.32-1.87-0.57c-0.6-0.25-1.18-0.56-1.72-0.92
	c-0.55-0.359-1.06-0.78-1.52-1.24s-0.88-0.97-1.25-1.52c-0.36-0.54-0.67-1.12-0.92-1.72c-0.25-0.61-0.44-1.24-0.57-1.88
	c-0.13-0.641-0.19-1.301-0.19-1.95c0-0.65,0.06-1.31,0.19-1.95s0.32-1.271,0.57-1.88c0.25-0.601,0.56-1.18,0.92-1.72
	c0.37-0.551,0.79-1.061,1.25-1.521s0.97-0.88,1.52-1.25c0.54-0.35,1.12-0.66,1.72-0.91c0.61-0.25,1.24-0.45,1.87-0.569
	c1.29-0.261,2.62-0.261,3.91,0c0.64,0.119,1.27,0.319,1.87,0.569c0.61,0.25,1.19,0.561,1.73,0.91c0.55,0.37,1.06,0.79,1.52,1.25
	s0.88,0.97,1.24,1.521c0.36,0.54,0.67,1.119,0.92,1.72c0.25,0.609,0.44,1.24,0.57,1.88s0.2,1.3,0.2,1.95c0,0.649-0.07,1.31-0.2,1.95
	c-0.13,0.64-0.32,1.27-0.57,1.88c-0.25,0.6-0.56,1.18-0.92,1.72c-0.36,0.55-0.78,1.06-1.24,1.52
	C181.87,335.93,179.29,337,176.66,337z"/>
<path d="M416.605,85.396H95.395c-5.523,0-10,4.478-10,10v321.209c0,5.523,4.477,10,10,10h321.21c5.523,0,10-4.477,10-10V95.396
	C426.605,89.873,422.128,85.396,416.605,85.396z M406.605,406.604h-301.21V105.396h301.21V406.604z"/>
<path d="M136.927,385.073h238.146c5.523,0,10-4.478,10-10V136.927c0-5.523-4.477-10-10-10H136.927c-5.523,0-10,4.477-10,10v238.146
	C126.927,380.596,131.404,385.073,136.927,385.073z M365.073,146.927V317H215.269c-5.523,0-10,4.478-10,10s4.477,10,10,10h149.805
	v28.073H146.927V178.798h149.805c5.523,0,10-4.478,10-10s-4.477-10-10-10H146.927v-11.871H365.073z"/>
<path d="M502,115c5.523,0,10-4.478,10-10V73.864c0-5.523-4.477-10-10-10h-33.864v-10c0-5.522-4.477-10-10-10h-10V10
	c0-5.523-4.477-10-10-10H407c-5.523,0-10,4.477-10,10v33.864h-32.148V10c0-5.523-4.477-10-10-10h-31.136c-5.523,0-10,4.477-10,10
	v33.864h-32.148V10c0-5.523-4.477-10-10-10h-31.136c-5.523,0-10,4.477-10,10v33.864h-32.148V10c0-5.523-4.477-10-10-10h-31.136
	c-5.523,0-10,4.477-10,10v33.864H115V10c0-5.523-4.477-10-10-10H73.864c-5.523,0-10,4.477-10,10v33.864h-10c-5.523,0-10,4.478-10,10
	v10H10c-5.523,0-10,4.477-10,10V105c0,5.522,4.477,10,10,10h33.864v32.148H10c-5.523,0-10,4.477-10,10v31.137
	c0,5.522,4.477,10,10,10h33.864v32.147H10c-5.523,0-10,4.478-10,10v31.137c0,5.522,4.477,10,10,10h33.864v32.147H10
	c-5.523,0-10,4.478-10,10v31.137c0,5.522,4.477,10,10,10h33.864V397H10c-5.523,0-10,4.478-10,10v31.136c0,5.522,4.477,10,10,10
	h33.864v10c0,5.522,4.477,10,10,10h10V502c0,5.522,4.477,10,10,10H105c5.523,0,10-4.478,10-10v-33.864h32.148V502
	c0,5.522,4.477,10,10,10h31.136c5.523,0,10-4.478,10-10v-33.864h32.148V502c0,5.522,4.477,10,10,10h31.136c5.523,0,10-4.478,10-10
	v-33.864h32.148V502c0,5.522,4.477,10,10,10h31.136c5.523,0,10-4.478,10-10v-33.864H397V502c0,5.522,4.477,10,10,10h31.136
	c5.523,0,10-4.478,10-10v-33.864h10c5.523,0,10-4.478,10-10v-10H502c5.523,0,10-4.478,10-10V407c0-5.522-4.477-10-10-10h-33.864
	v-32.147H502c5.523,0,10-4.478,10-10v-31.137c0-5.522-4.477-10-10-10h-33.864v-32.147H502c5.523,0,10-4.478,10-10v-31.137
	c0-5.522-4.477-10-10-10h-33.864v-32.147H502c5.523,0,10-4.478,10-10v-31.137c0-5.523-4.477-10-10-10h-33.864V115H502z M492,83.864
	V95h-23.864V83.864H492z M417,20h11.136v23.864H417V20z M333.716,20h11.136v23.864h-11.136V20z M250.432,20h11.136v23.864h-11.136
	L250.432,20L250.432,20z M167.148,20h11.136v23.864h-11.136V20z M83.864,20H95v23.864H83.864V20z M20,95V83.864h23.864V95H20z
	 M20,178.284v-11.137h23.864v11.137H20z M20,261.568v-11.137h23.864v11.137H20z M20,344.853v-11.137h23.864v11.137H20z M20,428.136
	V417h23.864v11.136H20z M95,492H83.864v-23.864H95V492z M178.284,492h-11.136v-23.864h11.136V492z M261.568,492h-11.136v-23.864
	h11.136V492z M344.852,492h-11.136v-23.864h11.136V492z M428.136,492H417v-23.864h11.136V492z M63.864,448.136V63.864l0,0l0,0l0,0
	l0,0l0,0h384.272l0,0l0,0l0,0l0,0l0,0l0,0l0,0l0,0l0,0l0,0l0,0v384.271l0,0l0,0l0,0l0,0l0,0l0,0l0,0l0,0l0,0l0,0L63.864,448.136
	L63.864,448.136L63.864,448.136L63.864,448.136L63.864,448.136 M492,417v11.136h-23.864V417H492z M492,333.716v11.137h-23.864
	v-11.137H492z M492,250.432v11.137h-23.864v-11.137H492z M492,167.148v11.137h-23.864v-11.137H492z"/>
<g>
</g>
<g>
</g>
<g>
</g>
<g>
</g>
<g>
</g>
<g>
</g>
<g>
</g>
<g>
</g>
<g>
</g>
<g>
</g>
<g>
</g>
<g>
</g>
<g>
</g>
<g>
</g>
<g>
</g>
</svg>
