<?xml version="1.0" encoding="iso-8859-1"?>
<!-- Generator: Adobe Illustrator 19.0.0, SVG Export Plug-In . SVG Version: 6.00 Build 0)  -->
<svg version="1.1" id="Capa_1" xmlns="http://www.w3.org/2000/svg" xmlns:xlink="http://www.w3.org/1999/xlink" x="0px" y="0px"
	 viewBox="0 0 468.293 468.293" style="enable-background:new 0 0 468.293 468.293;" xml:space="preserve">
<path style="fill:#E0E5E8;" d="M468.293,273.142v106.146H0V273.142c0-10.345,8.386-18.732,18.732-18.732h430.829
	C459.906,254.41,468.293,262.797,468.293,273.142z"/>
<path style="fill:#647989;" d="M413.034,309.481v69.807H55.196v-69.807c0-6.897,5.591-12.488,12.488-12.488h332.862
	C407.443,296.994,413.034,302.585,413.034,309.481z"/>
<circle style="fill:#FAD362;" cx="108.763" cy="338.139" r="21.854"/>
<circle style="fill:#4EBD9E;" cx="164.958" cy="338.139" r="15.61"/>
<circle style="fill:#29A1DA;" cx="214.909" cy="338.139" r="15.61"/>
<circle style="fill:#E56354;" cx="108.763" cy="338.139" r="9.366"/>
<g>
	<path style="fill:#647989;" d="M68.385,94.761L55.878,254.41l37.463,0L80.835,94.761C80.233,87.086,68.986,87.086,68.385,94.761z"
		/>
	<path style="fill:#647989;" d="M387.458,94.761L374.951,254.41l37.463,0L399.908,94.761
		C399.307,87.086,388.06,87.086,387.458,94.761z"/>
</g>
<g>
	<path style="fill:#304859;" d="M334.276,131.91c-57.207-57.207-150.305-57.207-207.512,0c-3.659,3.655-3.659,9.585,0,13.244
		c3.659,3.659,9.585,3.659,13.244,0c49.915-49.902,131.11-49.902,181.024,0c1.829,1.829,4.226,2.744,6.622,2.744
		c2.396,0,4.793-0.915,6.622-2.744C337.934,141.495,337.934,135.566,334.276,131.91z"/>
	<path style="fill:#304859;" d="M230.52,138.925c-25.872,0-50.177,10.052-68.433,28.305c-3.659,3.656-3.659,9.585,0,13.244
		c3.659,3.659,9.585,3.659,13.244,0c14.72-14.713,34.317-22.817,55.189-22.817c20.878,0,40.476,8.104,55.189,22.817
		c1.829,1.829,4.226,2.744,6.622,2.744s4.793-0.915,6.622-2.744c3.659-3.656,3.659-9.585,0-13.244
		C280.703,148.977,256.398,138.925,230.52,138.925z"/>
	<path style="fill:#304859;" d="M197.41,202.55c-3.659,3.655-3.659,9.588,0,13.244c3.659,3.659,9.585,3.659,13.244,0
		c10.951-10.951,28.787-10.954,39.738,0.003c1.829,1.826,4.226,2.741,6.622,2.741c2.396,0,4.793-0.915,6.622-2.744
		c3.659-3.659,3.659-9.588,0-13.247C245.367,184.297,215.666,184.294,197.41,202.55z"/>
</g>
<g>
</g>
<g>
</g>
<g>
</g>
<g>
</g>
<g>
</g>
<g>
</g>
<g>
</g>
<g>
</g>
<g>
</g>
<g>
</g>
<g>
</g>
<g>
</g>
<g>
</g>
<g>
</g>
<g>
</g>
</svg>
