<?xml version="1.0" encoding="iso-8859-1"?>
<!-- Generator: Adobe Illustrator 19.0.0, SVG Export Plug-In . SVG Version: 6.00 Build 0)  -->
<svg version="1.1" id="Capa_1" xmlns="http://www.w3.org/2000/svg" xmlns:xlink="http://www.w3.org/1999/xlink" x="0px" y="0px"
	 viewBox="0 0 512 512" style="enable-background:new 0 0 512 512;" xml:space="preserve">
<path style="fill:#2E7191;" d="M187.466,309.777v92.752c0,54.936,44.535,99.471,99.471,99.471h15.102
	c54.936,0,99.471-44.535,99.471-99.471v-92.751L187.466,309.777L187.466,309.777z"/>
<path d="M368.219,357.35c-0.65,0-1.3-0.06-1.95-0.19c-0.64-0.13-1.27-0.32-1.87-0.57c-0.6-0.25-1.18-0.56-1.729-0.92
	c-0.54-0.37-1.061-0.79-1.521-1.25c-0.46-0.46-0.88-0.97-1.239-1.52c-0.36-0.54-0.67-1.12-0.92-1.72c-0.25-0.61-0.44-1.24-0.57-1.87
	c-0.13-0.65-0.2-1.31-0.2-1.96s0.07-1.31,0.2-1.95s0.32-1.27,0.57-1.87c0.25-0.61,0.56-1.19,0.92-1.73
	c0.359-0.55,0.779-1.06,1.239-1.52c2.33-2.32,5.78-3.39,9.03-2.73c0.64,0.13,1.271,0.32,1.87,0.57c0.6,0.25,1.18,0.56,1.72,0.92
	c0.55,0.36,1.061,0.78,1.53,1.24c0.46,0.46,0.87,0.97,1.24,1.52c0.359,0.54,0.67,1.12,0.92,1.73c0.25,0.6,0.439,1.23,0.57,1.87
	c0.13,0.64,0.189,1.3,0.189,1.95c0,2.63-1.06,5.21-2.92,7.07c-0.47,0.46-0.98,0.88-1.53,1.25c-0.54,0.36-1.12,0.67-1.72,0.92
	c-0.6,0.25-1.23,0.44-1.87,0.57C369.53,357.29,368.879,357.35,368.219,357.35z"/>
<path style="fill:#72D8FF;" d="M286.937,172.81c-54.936,0-99.471,44.535-99.471,99.471v37.496h107.022V172.81L286.937,172.81
	L286.937,172.81z"/>
<path style="fill:#6A9AFF;" d="M401.51,272.281c0-54.936-44.535-99.471-99.471-99.471h-7.551v136.967H401.51V272.281z"/>
<path d="M304.489,162.841V56c0-30.878-25.122-56-56.001-56s-56,25.122-56,56v78.614c0,19.851-16.149,36-36,36s-36-16.149-36-36
	V86.499c0-5.523-4.477-10-10-10s-10,4.477-10,10v48.114c0,30.878,25.122,56,56,56s56-25.122,56-56V56c0-19.851,16.149-36,36-36
	s36.001,16.149,36.001,36v106.841c-59.236,1.307-107.022,49.896-107.022,109.44l0,0v130.248
	c0,60.363,49.108,109.471,109.471,109.471h15.103c60.362,0,109.471-49.108,109.471-109.471V272.281l0,0
	C411.51,212.737,363.724,164.149,304.489,162.841z M391.51,272.281v27.497h-87.021V182.843
	C352.696,184.145,391.51,223.766,391.51,272.281z M197.466,272.281c0-48.515,38.815-88.136,87.022-89.437v116.934h-87.022
	L197.466,272.281L197.466,272.281z M391.51,402.529c0,49.335-40.137,89.471-89.471,89.471h-15.103
	c-49.334,0-89.471-40.137-89.471-89.471v-45.177h131.806c5.522,0,10-4.477,10-10s-4.478-10-10-10H197.466v-17.575H391.51l0,0
	V402.529z"/>
<path d="M110.489,57.42c-2.63,0-5.21-1.07-7.07-2.93c-0.46-0.46-0.88-0.97-1.25-1.52c-0.36-0.54-0.67-1.13-0.92-1.73
	s-0.44-1.23-0.56-1.87c-0.13-0.64-0.2-1.3-0.2-1.95c0-0.66,0.07-1.31,0.2-1.96c0.12-0.64,0.31-1.27,0.56-1.87s0.56-1.18,0.92-1.72
	c0.37-0.55,0.79-1.06,1.25-1.52c2.32-2.33,5.77-3.39,9.02-2.74c0.64,0.13,1.27,0.32,1.87,0.57c0.61,0.25,1.19,0.56,1.73,0.92
	c0.55,0.37,1.06,0.78,1.52,1.25c0.46,0.46,0.88,0.97,1.24,1.52c0.36,0.54,0.67,1.12,0.92,1.72c0.25,0.6,0.44,1.23,0.57,1.87
	c0.13,0.65,0.2,1.3,0.2,1.96c0,0.65-0.07,1.31-0.2,1.95s-0.32,1.27-0.57,1.87s-0.56,1.19-0.92,1.73c-0.36,0.55-0.78,1.06-1.24,1.52
	c-0.461,0.46-0.97,0.88-1.52,1.24c-0.54,0.36-1.12,0.67-1.73,0.92c-0.6,0.25-1.23,0.44-1.87,0.57
	C111.799,57.35,111.139,57.42,110.489,57.42z"/>
<g>
</g>
<g>
</g>
<g>
</g>
<g>
</g>
<g>
</g>
<g>
</g>
<g>
</g>
<g>
</g>
<g>
</g>
<g>
</g>
<g>
</g>
<g>
</g>
<g>
</g>
<g>
</g>
<g>
</g>
</svg>
