<?xml version="1.0" encoding="iso-8859-1"?>
<!-- Generator: Adobe Illustrator 19.0.0, SVG Export Plug-In . SVG Version: 6.00 Build 0)  -->
<svg version="1.1" id="Capa_1" xmlns="http://www.w3.org/2000/svg" xmlns:xlink="http://www.w3.org/1999/xlink" x="0px" y="0px"
	 viewBox="0 0 512 512" style="enable-background:new 0 0 512 512;" xml:space="preserve">
<g>
	<rect x="9.143" y="64" style="fill:#67CDD9;" width="384" height="365.714"/>
	<rect x="356.571" y="54.857" style="fill:#67CDD9;" width="146.286" height="182.857"/>
</g>
<path d="M384,420.571H18.286V73.143h310.857V54.857H18.286v-9.143c0-15.15,12.279-27.429,27.429-27.429h292.571V0H45.714
	C20.48,0.027,0.027,20.48,0,45.714v420.571C0.027,491.52,20.48,511.973,45.714,512h310.857c25.234-0.027,45.687-20.48,45.714-45.714
	V320H384V420.571z M356.571,493.714H45.714c-15.15,0-27.429-12.279-27.429-27.429l0,0v-27.429H384v27.429
	C384,481.435,371.721,493.714,356.571,493.714L356.571,493.714z"/>
<rect x="192" y="457.143" width="18.286" height="18.286"/>
<rect x="192" y="210.286" width="18.286" height="18.286"/>
<rect x="283.429" y="210.286" width="18.286" height="18.286"/>
<rect x="100.571" y="210.286" width="18.286" height="18.286"/>
<path d="M484.571,9.143H374.857c-15.15,0-27.429,12.279-27.429,27.429v237.714c0,15.15,12.279,27.429,27.429,27.429h109.714
	c15.15,0,27.429-12.279,27.429-27.429V36.571C512,21.422,499.721,9.143,484.571,9.143z M374.857,27.429h109.714
	c5.047,0,9.143,4.096,9.143,9.143v9.143h-128v-9.143C365.714,31.525,369.81,27.429,374.857,27.429z M493.714,64v164.571h-128V64
	H493.714z M484.571,283.429H374.857c-5.047,0-9.143-4.096-9.143-9.143v-27.429h128v27.429
	C493.714,279.333,489.618,283.429,484.571,283.429z"/>
<rect x="420.571" y="256" width="18.286" height="18.286"/>
<rect x="420.571" y="128" width="18.286" height="18.286"/>
<rect x="457.143" y="128" width="18.286" height="18.286"/>
<rect x="384" y="128" width="18.286" height="18.286"/>
<g>
</g>
<g>
</g>
<g>
</g>
<g>
</g>
<g>
</g>
<g>
</g>
<g>
</g>
<g>
</g>
<g>
</g>
<g>
</g>
<g>
</g>
<g>
</g>
<g>
</g>
<g>
</g>
<g>
</g>
</svg>
