<?xml version="1.0" encoding="iso-8859-1"?>
<!-- Generator: Adobe Illustrator 19.0.0, SVG Export Plug-In . SVG Version: 6.00 Build 0)  -->
<svg version="1.1" id="Capa_1" xmlns="http://www.w3.org/2000/svg" xmlns:xlink="http://www.w3.org/1999/xlink" x="0px" y="0px"
	 viewBox="0 0 512 512" style="enable-background:new 0 0 512 512;" xml:space="preserve">
<polygon style="fill:#FDC572;" points="277.227,142.503 149.703,393.847 367.568,504.385 487.927,267.162 430.784,92.317 "/>
<polygon style="fill:#F1839B;" points="283.24,20.804 16.686,112.374 96.059,343.424 347.637,257 428.39,91.728 "/>
<polygon style="fill:#FCB74F;" points="192.01,310.462 149.703,393.847 265.792,452.746 478.924,239.614 430.784,92.317 "/>
<polygon style="fill:#E47881;" points="428.39,91.728 283.24,20.804 283.085,20.858 61.401,242.541 96.059,343.424 192.01,310.462 
	430.784,92.317 427.592,93.36 "/>
<path style="fill:#75E0F1;" d="M497.848,13.393l-166.99-5.757L8.394,330.098l172.749,172.749l322.464-322.464L497.848,13.393z
	 M428.749,82.493c-9.541-9.541-9.541-25.009,0-34.55c9.541-9.541,25.009-9.541,34.55,0c9.54,9.541,9.541,25.009,0,34.55
	C453.757,92.033,438.289,92.033,428.749,82.493z"/>
<path d="M446.023,33.153c-13.798,0-26.395,9.172-30.571,22.342c-4.197,13.23,0.811,28.016,12.168,35.984
	c11.346,7.959,27.06,7.586,38.019-0.893c9.739-7.534,14.326-20.308,11.678-32.321c-2.799-12.695-13.403-22.706-26.26-24.72
	C449.392,33.283,447.707,33.153,446.023,33.153z M457.9,77.094c-4.636,4.636-11.749,6.141-17.874,3.811
	c-6.72-2.557-11.124-9.33-10.781-16.505c0.358-7.499,5.887-14.039,13.238-15.608c7.15-1.525,14.655,1.858,18.213,8.251
	C464.302,63.521,463.14,71.855,457.9,77.094z"/>
<path d="M511.235,180.12l-5.758-166.99c-0.138-4.01-3.357-7.229-7.366-7.367L331.12,0.005c-2.113-0.077-4.165,0.735-5.663,2.231
	l-20.622,20.622l-18.244-8.914c-1.82-0.89-3.92-1.019-5.832-0.36l-266.555,91.57c-3.928,1.35-6.092,5.765-4.74,9.701l52.003,151.374
	L2.996,324.7c-2.982,2.982-2.982,7.816,0,10.796l172.749,172.749c2.941,2.941,7.855,2.941,10.796,0l57.814-57.814l119.759,60.762
	c3.712,1.883,8.383,0.35,10.263-3.354l78.2-154.13c1.908-3.76,0.405-8.355-3.354-10.263c-3.76-1.907-8.355-0.405-10.263,3.354
	l-74.747,147.322l-108.5-55.05L467.02,227.767l12.668,38.762l-24.25,47.796c-1.761,3.471-0.555,7.835,2.736,9.912
	c3.755,2.369,8.876,0.949,10.881-3.003l25.681-50.615c0.916-1.806,1.078-3.902,0.448-5.827l-16.057-49.13l29.878-29.878
	C510.5,184.286,511.309,182.235,511.235,180.12z M26.386,117.114L282.73,29.053l10.689,5.223L73.484,254.212L26.386,117.114z
	 M181.142,492.05L19.191,330.098L333.91,15.38l156.553,5.398l5.399,156.553L181.142,492.05z"/>
<path d="M368.171,217.513l-36.286,36.202l-80.975-80.975c-2.983-2.982-7.816-2.982-10.797,0c-2.982,2.982-2.982,7.816,0,10.796
	l86.373,86.374c2.942,2.942,7.855,2.941,10.797,0l41.936-41.85c3.028-3.029,2.98-7.97-0.146-10.938
	C376.028,214.23,371.14,214.544,368.171,217.513z"/>
<path d="M317.023,279.768l-122.363-50.385c-6.143-2.53-12.496,3.822-9.967,9.967l50.385,122.363
	c1.667,4.049,6.564,5.881,10.485,3.916c3.526-1.766,5.134-6.085,3.634-9.729l-23.255-56.476l28.791-28.791l56.476,23.255
	c3.848,1.585,8.383-0.304,9.967-4.153C322.759,285.887,320.869,281.352,317.023,279.768z M219.645,284.127l-13.856-33.65
	l33.65,13.856L219.645,284.127z"/>
<path d="M216.821,394.159c9.798-14.814,8.18-35.008-4.856-48.042c-7.21-7.21-16.796-11.18-26.991-11.18s-19.782,3.97-26.992,11.18
	l-7.197,7.198c-8.93,8.929-23.46,8.929-32.39,0c-8.929-8.929-8.929-23.46,0-32.391l7.195-7.194c0.001-0.001,0.003-0.002,0.004-0.003
	c0.001-0.001,0.002-0.003,0.003-0.004l21.59-21.59c2.982-2.982,2.982-7.816,0-10.796c-2.982-2.983-7.816-2.982-10.796,0
	l-16.195,16.195l-8.997-8.997c-2.982-2.982-7.816-2.982-10.796,0c-2.982,2.982-2.982,7.816,0,10.796l8.997,8.997l-1.8,1.8
	c-14.883,14.883-14.883,39.101,0,53.984s39.101,14.883,53.985,0l7.197-7.198c8.93-8.929,23.459-8.93,32.391,0
	c8.928,8.929,8.929,23.457,0.002,32.387c-0.001,0.001-0.002,0.002-0.003,0.002c-0.002,0.002-0.003,0.003-0.005,0.005l-28.787,28.786
	c-2.78,2.779-2.964,7.371-0.406,10.358c2.855,3.334,8.097,3.543,11.202,0.438l23.393-23.393l8.997,8.997
	c3.105,3.106,8.348,2.896,11.202-0.438c2.559-2.988,2.374-7.58-0.406-10.358L216.821,394.159z"/>
<path d="M427.687,162.164l-21.595,21.593c-8.928,8.929-23.46,8.929-32.388,0l-16.195-16.195l30.591-30.591
	c2.982-2.982,2.982-7.816,0-10.796c-2.983-2.982-7.816-2.982-10.797,0l-30.591,30.59l-16.194-16.194
	c-8.828-8.829-8.83-23.562,0-32.391l21.593-21.593c2.982-2.982,2.982-7.816,0-10.796c-2.983-2.983-7.816-2.982-10.797,0
	L319.72,97.384c-11.239,11.238-14.354,28.809-7.585,43.214c1.878,3.996,4.463,7.648,7.584,10.77l43.188,43.187
	c11.19,11.19,28.649,14.275,43.016,7.656c4.073-1.877,7.797-4.485,10.967-7.656l21.594-21.593c2.983-2.982,2.983-7.815,0.001-10.796
	C435.504,159.184,430.667,159.183,427.687,162.164z"/>
<g>
</g>
<g>
</g>
<g>
</g>
<g>
</g>
<g>
</g>
<g>
</g>
<g>
</g>
<g>
</g>
<g>
</g>
<g>
</g>
<g>
</g>
<g>
</g>
<g>
</g>
<g>
</g>
<g>
</g>
</svg>
