<?xml version="1.0" encoding="iso-8859-1"?>
<!-- Generator: Adobe Illustrator 19.0.0, SVG Export Plug-In . SVG Version: 6.00 Build 0)  -->
<svg version="1.1" id="Capa_1" xmlns="http://www.w3.org/2000/svg" xmlns:xlink="http://www.w3.org/1999/xlink" x="0px" y="0px"
	 viewBox="0 0 512 512" style="enable-background:new 0 0 512 512;" xml:space="preserve">
<path style="fill:#607D8B;" d="M509.728,247.776l-48-80c-2.891-4.825-8.103-7.777-13.728-7.776H336c-8.837,0-16,7.163-16,16v192
	c0,8.837,7.163,16,16,16h160c8.837,0,16-7.163,16-16V256C512.014,253.102,511.228,250.256,509.728,247.776z"/>
<polygon style="fill:#ECEFF1;" points="477.344,256 384,256 384,192 438.944,192 "/>
<path style="fill:#E53935;" d="M336,96H16c-8.837,0-16,7.163-16,16v256c0,8.837,7.163,16,16,16h336V112
	C352,103.164,344.837,96,336,96z"/>
<g>
	<circle style="fill:#ECEFF1;" cx="112" cy="368" r="32"/>
	<circle style="fill:#ECEFF1;" cx="432" cy="368" r="32"/>
</g>
<path d="M336,384H144c-8.837,0-16-7.163-16-16s7.163-16,16-16h176V128H32v224h48c8.837,0,16,7.163,16,16s-7.163,16-16,16H16
	c-8.837,0-16-7.163-16-16V112c0-8.837,7.163-16,16-16h320c8.837,0,16,7.163,16,16v256C352,376.837,344.837,384,336,384z"/>
<path d="M112,416c-26.51,0-48-21.49-48-48s21.49-48,48-48s48,21.49,48,48S138.51,416,112,416z M112,352c-8.837,0-16,7.163-16,16
	s7.163,16,16,16s16-7.163,16-16S120.837,352,112,352z"/>
<path d="M432,416c-26.51,0-48-21.49-48-48s21.49-48,48-48s48,21.49,48,48S458.51,416,432,416z M432,352c-8.837,0-16,7.163-16,16
	s7.163,16,16,16s16-7.163,16-16S440.837,352,432,352z"/>
<path d="M80,384H16c-8.837,0-16-7.163-16-16s7.163-16,16-16h64c8.837,0,16,7.163,16,16S88.837,384,80,384z"/>
<path d="M496,384h-32c-8.837,0-16-7.163-16-16s7.163-16,16-16h16v-91.552L438.944,192H336c-8.837,0-16-7.163-16-16s7.163-16,16-16
	h112c5.625-0.001,10.837,2.951,13.728,7.776l48,80c1.5,2.48,2.286,5.326,2.272,8.224v112C512,376.837,504.837,384,496,384z"/>
<path d="M400,384H144c-8.837,0-16-7.163-16-16s7.163-16,16-16h256c8.837,0,16,7.163,16,16S408.837,384,400,384z"/>
<path d="M496,288h-96c-8.837,0-16-7.163-16-16v-96c0-8.837,7.163-16,16-16s16,7.163,16,16v80h80c8.837,0,16,7.163,16,16
	S504.837,288,496,288z"/>
<g>
</g>
<g>
</g>
<g>
</g>
<g>
</g>
<g>
</g>
<g>
</g>
<g>
</g>
<g>
</g>
<g>
</g>
<g>
</g>
<g>
</g>
<g>
</g>
<g>
</g>
<g>
</g>
<g>
</g>
</svg>
